<svg xmlns="http://www.w3.org/2000/svg" width="61" height="22" fill="none"><path fill="#006FFD" fill-opacity=".7" d="M9.485 7.42C6.377 4.988 8.096 0 12.043 0H50.11c3.94 0 5.875 4.798 3.037 7.53a4.377 4.377 0 0 0-.124 6.183l.252.263c2.89 3.015.754 8.024-3.423 8.024H12.2c-4.167 0-6.072-5.194-2.893-7.888l.303-.257a4.15 4.15 0 0 0-.126-6.435Z"/><path fill="#fff" d="m21.019 6.793 2.11 6.63h.08l2.114-6.63h2.045L24.36 15.52h-2.378l-3.013-8.727h2.05Zm9.705 8.855c-.662 0-1.235-.14-1.718-.422a2.887 2.887 0 0 1-1.112-1.185c-.261-.508-.392-1.098-.392-1.768 0-.676.13-1.267.392-1.773a2.853 2.853 0 0 1 1.112-1.185c.483-.284 1.056-.426 1.718-.426.662 0 1.233.142 1.713.426.483.282.855.677 1.116 1.185.262.506.392 1.097.392 1.773 0 .67-.13 1.26-.392 1.768-.261.506-.633.9-1.116 1.185-.48.281-1.051.422-1.713.422Zm.008-1.406c.301 0 .553-.086.755-.256.201-.173.353-.41.455-.708.106-.298.158-.637.158-1.018 0-.38-.052-.72-.158-1.018a1.585 1.585 0 0 0-.456-.708 1.117 1.117 0 0 0-.754-.26c-.304 0-.56.087-.767.26-.204.173-.36.41-.464.708a3.132 3.132 0 0 0-.154 1.018c0 .38.051.72.154 1.018.105.299.26.535.464.708.208.17.463.256.767.256Zm4.514 1.278V8.975h1.815v6.545h-1.815Zm.912-7.39a.986.986 0 0 1-.695-.268.87.87 0 0 1-.285-.652c0-.25.095-.464.285-.643a.978.978 0 0 1 .695-.273c.27 0 .5.091.69.273.193.179.29.393.29.643 0 .253-.097.47-.29.652a.972.972 0 0 1-.69.269Zm2.477 7.39V8.975h1.76v1.142h.068c.12-.407.32-.713.601-.92a1.58 1.58 0 0 1 .972-.316 2.746 2.746 0 0 1 .57.064v1.61a2.38 2.38 0 0 0-.353-.068c-.15-.02-.288-.03-.413-.03-.267 0-.506.059-.716.175a1.288 1.288 0 0 0-.495.478c-.119.204-.178.44-.178.707v3.703h-1.816Z"/></svg>