<svg width="132" height="22" viewBox="0 0 132 22" fill="none" xmlns="http://www.w3.org/2000/svg">
<path d="M19.9461 7.20635C16.0338 5.79286 17.0482 0 21.208 0H114.181C118.267 0 119.452 5.58012 115.719 7.24037V7.24037C112.774 8.55002 112.71 12.7069 115.614 14.1058L116.095 14.3377C119.956 16.1978 118.632 22 114.346 22H20.9031C16.5429 22 15.405 15.9705 19.4652 14.3813L20.0378 14.1572C23.2294 12.9081 23.1696 8.37094 19.9461 7.20635V7.20635Z" fill="#006FFD" fill-opacity="0.7"/>
<path d="M48.5816 6.79275L50.6909 13.4234H50.7719L52.8856 6.79275H54.931L51.9225 15.52H49.5446L46.5319 6.79275H48.5816ZM57.2073 15.6436C56.7896 15.6436 56.4175 15.5712 56.0908 15.4263C55.7641 15.2785 55.5056 15.0612 55.3152 14.7743C55.1277 14.4845 55.034 14.1237 55.034 13.6919C55.034 13.3283 55.1007 13.0229 55.2342 12.7757C55.3678 12.5285 55.5496 12.3297 55.7797 12.1791C56.0098 12.0285 56.2712 11.9149 56.5638 11.8382C56.8592 11.7615 57.1689 11.7075 57.4928 11.6763C57.8734 11.6365 58.1803 11.5996 58.4132 11.5655C58.6462 11.5285 58.8152 11.4746 58.9203 11.4035C59.0254 11.3325 59.078 11.2274 59.078 11.0882V11.0626C59.078 10.7927 58.9928 10.5839 58.8223 10.4362C58.6547 10.2885 58.4161 10.2146 58.1064 10.2146C57.7797 10.2146 57.5198 10.2871 57.3266 10.432C57.1334 10.574 57.0056 10.753 56.9431 10.9689L55.2641 10.8325C55.3493 10.4348 55.5169 10.091 55.7669 9.80127C56.0169 9.50866 56.3394 9.28422 56.7342 9.12797C57.132 8.96888 57.5922 8.88934 58.1149 8.88934C58.4786 8.88934 58.8266 8.93195 59.159 9.01718C59.4942 9.10241 59.7911 9.23451 60.0496 9.41349C60.3109 9.59246 60.5169 9.82258 60.6675 10.1038C60.8181 10.3822 60.8933 10.716 60.8933 11.1052V15.52H59.1717V14.6123H59.1206C59.0155 14.8169 58.8749 14.9973 58.6987 15.1535C58.5226 15.307 58.3109 15.4277 58.0638 15.5158C57.8166 15.601 57.5311 15.6436 57.2073 15.6436ZM57.7271 14.3908C57.9942 14.3908 58.23 14.3382 58.4345 14.2331C58.6391 14.1251 58.7996 13.9802 58.9161 13.7984C59.0325 13.6166 59.0908 13.4106 59.0908 13.1805V12.4859C59.034 12.5229 58.9558 12.557 58.8564 12.5882C58.7598 12.6166 58.6504 12.6436 58.5283 12.6692C58.4061 12.6919 58.284 12.7132 58.1618 12.7331C58.0396 12.7501 57.9288 12.7658 57.8294 12.78C57.6163 12.8112 57.4303 12.8609 57.2712 12.9291C57.1121 12.9973 56.9885 13.0896 56.9004 13.2061C56.8124 13.3197 56.7683 13.4618 56.7683 13.6322C56.7683 13.8794 56.8578 14.0683 57.0368 14.199C57.2186 14.3268 57.4487 14.3908 57.7271 14.3908ZM64.2371 6.79275V15.52H62.4217V6.79275H64.2371ZM65.8112 15.52V8.97456H67.6266V15.52H65.8112ZM66.7232 8.13081C66.4533 8.13081 66.2218 8.04133 66.0286 7.86235C65.8382 7.68053 65.7431 7.4632 65.7431 7.21036C65.7431 6.96036 65.8382 6.74587 66.0286 6.56689C66.2218 6.38508 66.4533 6.29417 66.7232 6.29417C66.9931 6.29417 67.2232 6.38508 67.4135 6.56689C67.6067 6.74587 67.7033 6.96036 67.7033 7.21036C67.7033 7.4632 67.6067 7.68053 67.4135 7.86235C67.2232 8.04133 66.9931 8.13081 66.7232 8.13081ZM71.6127 15.6266C71.1156 15.6266 70.6653 15.4987 70.2619 15.243C69.8613 14.9845 69.5431 14.6052 69.3073 14.1052C69.0744 13.6024 68.9579 12.9859 68.9579 12.2558C68.9579 11.5058 69.0786 10.8822 69.3201 10.3851C69.5616 9.88508 69.8826 9.5115 70.2832 9.26434C70.6866 9.01434 71.1283 8.88934 71.6084 8.88934C71.9749 8.88934 72.2803 8.95184 72.5246 9.07684C72.7718 9.199 72.9707 9.35241 73.1212 9.53706C73.2746 9.71888 73.3911 9.89786 73.4707 10.074H73.5261V6.79275H75.3371V15.52H73.5474V14.4717H73.4707C73.3854 14.6535 73.2647 14.8339 73.1084 15.0129C72.955 15.1891 72.7548 15.3354 72.5076 15.4518C72.2633 15.5683 71.965 15.6266 71.6127 15.6266ZM72.188 14.182C72.4806 14.182 72.7278 14.1024 72.9295 13.9433C73.134 13.7814 73.2903 13.5555 73.3982 13.2658C73.509 12.976 73.5644 12.6365 73.5644 12.2473C73.5644 11.8581 73.5104 11.52 73.4025 11.2331C73.2945 10.9462 73.1383 10.7246 72.9337 10.5683C72.7292 10.4121 72.4806 10.3339 72.188 10.3339C71.8897 10.3339 71.6383 10.4149 71.4337 10.5768C71.2292 10.7388 71.0744 10.9632 70.9692 11.2501C70.8641 11.5371 70.8116 11.8695 70.8116 12.2473C70.8116 12.628 70.8641 12.9646 70.9692 13.2572C71.0772 13.547 71.232 13.7743 71.4337 13.9391C71.6383 14.101 71.8897 14.182 72.188 14.182ZM79.9326 15.6479C79.2593 15.6479 78.6798 15.5115 78.194 15.2388C77.711 14.9632 77.3389 14.574 77.0775 14.0712C76.8162 13.5655 76.6855 12.9675 76.6855 12.2771C76.6855 11.6038 76.8162 11.0129 77.0775 10.5044C77.3389 9.99587 77.7068 9.59956 78.1812 9.31547C78.6585 9.03138 79.2182 8.88934 79.8602 8.88934C80.292 8.88934 80.694 8.95894 81.0662 9.09814C81.4412 9.23451 81.7679 9.44047 82.0463 9.71604C82.3275 9.99161 82.5463 10.3382 82.7025 10.7558C82.8588 11.1706 82.9369 11.6564 82.9369 12.2132V12.7118H77.4099V11.5868H81.2281C81.2281 11.3254 81.1713 11.0939 81.0576 10.8922C80.944 10.6905 80.7863 10.5328 80.5846 10.4192C80.3858 10.3027 80.1542 10.2445 79.89 10.2445C79.6145 10.2445 79.3701 10.3084 79.1571 10.4362C78.9468 10.5612 78.7821 10.7302 78.6628 10.9433C78.5434 11.1535 78.4824 11.3879 78.4795 11.6464V12.716C78.4795 13.0399 78.5392 13.3197 78.6585 13.5555C78.7807 13.7913 78.9525 13.9731 79.1741 14.101C79.3957 14.2288 79.6585 14.2927 79.9625 14.2927C80.1642 14.2927 80.3488 14.2643 80.5164 14.2075C80.6841 14.1507 80.8275 14.0655 80.9468 13.9518C81.0662 13.8382 81.1571 13.699 81.2196 13.5342L82.8986 13.645C82.8133 14.0484 82.6386 14.4007 82.3744 14.7018C82.113 15.0001 81.775 15.2331 81.3602 15.4007C80.9483 15.5655 80.4724 15.6479 79.9326 15.6479ZM84.2416 15.52V8.97456H86.0015V10.1166H86.0697C86.189 9.71036 86.3893 9.40354 86.6705 9.19616C86.9518 8.98593 87.2757 8.88081 87.6421 8.88081C87.733 8.88081 87.831 8.8865 87.9362 8.89786C88.0413 8.90922 88.1336 8.92485 88.2132 8.94474V10.5555C88.1279 10.53 88.01 10.5072 87.8595 10.4873C87.7089 10.4675 87.5711 10.4575 87.4461 10.4575C87.1791 10.4575 86.9404 10.5158 86.7302 10.6322C86.5228 10.7459 86.358 10.905 86.2359 11.1095C86.1166 11.3141 86.0569 11.5498 86.0569 11.8169V15.52H84.2416Z" fill="white"/>
</svg>
